<svg xmlns="http://www.w3.org/2000/svg" viewBox="0 0 64 64"><g fill="none" stroke="currentColor" stroke-width="2.4" stroke-linecap="round" stroke-linejoin="round"><path d="M37.9,45h-3.5C28.3,45,18,52,18,52v-4"/><path d="M20.9,45h-3c-3.3,0-5.9-2.6-5.9-5.9V25c0-3.3,2.7-6,6-6h28.1c3.3,0,5.9,2.6,5.9,5.9V36"/><rect x="42" y="44" width="10" height="8"/><path d="M50,44h-6v-2c0-1.7,1.3-3,3-3h0c1.7,0,3,1.3,3,3V44z"/><circle cx="21" cy="32" r="3"/><circle cx="32" cy="32" r="3"/><circle cx="43" cy="32" r="3"/></g><circle cx="47" cy="48" r="1.1" fill="currentColor"/></svg>
